<?xml version="1.0" encoding="UTF-8"?>
<svg width="24px" height="24px" viewBox="0 0 24 24" version="1.1" xmlns="http://www.w3.org/2000/svg" xmlns:xlink="http://www.w3.org/1999/xlink">
    <title>Tickets Filled Icon</title>
    <g stroke="none" stroke-width="1" fill="none" fill-rule="evenodd">
        <path d="M22,2 L2,2 C0.9,2 0,2.9 0,4 L0,8 C1.1,8 2,8.9 2,10 C2,11.1 1.1,12 0,12 L0,16 C0,17.1 0.9,18 2,18 L22,18 C23.1,18 24,17.1 24,16 L24,12 C22.9,12 22,11.1 22,10 C22,8.9 22.9,8 24,8 L24,4 C24,2.9 23.1,2 22,2 Z M14,14 L10,14 C9.45,14 9,13.55 9,13 C9,12.45 9.45,12 10,12 L14,12 C14.55,12 15,12.45 15,13 C15,13.55 14.55,14 14,14 Z M14,10 L10,10 C9.45,10 9,9.55 9,9 C9,8.45 9.45,8 10,8 L14,8 C14.55,8 15,8.45 15,9 C15,9.55 14.55,10 14,10 Z" fill="#000000" fill-rule="nonzero"></path>
    </g>
</svg>
