<?xml version="1.0" encoding="UTF-8"?>
<svg width="24px" height="24px" viewBox="0 0 24 24" version="1.1" xmlns="http://www.w3.org/2000/svg" xmlns:xlink="http://www.w3.org/1999/xlink">
    <title>Tickets Icon</title>
    <g stroke="none" stroke-width="1" fill="none" fill-rule="evenodd">
        <path d="M22,4 L22,8 C20.9,8 20,8.9 20,10 C20,11.1 20.9,12 22,12 L22,16 L2,16 L2,12 C3.1,12 4,11.1 4,10 C4,8.9 3.1,8 2,8 L2,4 L22,4 M22,2 L2,2 C0.9,2 0,2.9 0,4 L0,8 C0,8 0,8 0,8 C1.1,8 2,8.9 2,10 C2,11.1 1.1,12 0,12 C0,12 0,12 0,12 L0,16 C0,17.1 0.9,18 2,18 L22,18 C23.1,18 24,17.1 24,16 L24,12 C24,12 24,12 24,12 C22.9,12 22,11.1 22,10 C22,8.9 22.9,8 24,8 C24,8 24,8 24,8 L24,4 C24,2.9 23.1,2 22,2 L22,2 Z" fill="#000000" fill-rule="nonzero"></path>
        <path d="M14,8 L10,8 C9.45,8 9,8.45 9,9 C9,9.55 9.45,10 10,10 L14,10 C14.55,10 15,9.55 15,9 C15,8.45 14.55,8 14,8 Z" fill="#000000" fill-rule="nonzero"></path>
        <path d="M14,12 L10,12 C9.45,12 9,12.45 9,13 C9,13.55 9.45,14 10,14 L14,14 C14.55,14 15,13.55 15,13 C15,12.45 14.55,12 14,12 Z" fill="#000000" fill-rule="nonzero"></path>
    </g>
</svg>
